<svg xmlns="http://www.w3.org/2000/svg" width="14.079" height="13.172" viewBox="0 0 14.079 13.172">
  <path id="favorite_24dp_E8EAED_FILL1_wght400_GRAD0_opsz24_1_" data-name="favorite_24dp_E8EAED_FILL1_wght400_GRAD0_opsz24 (1)" d="M86.54-842l-.948-.85q-1.651-1.488-2.73-2.567a18.084,18.084,0,0,1-1.717-1.937,6.155,6.155,0,0,1-.891-1.578A4.4,4.4,0,0,1,80-850.4a3.483,3.483,0,0,1,1.03-2.567A3.484,3.484,0,0,1,83.6-854a3.773,3.773,0,0,1,1.619.36,3.879,3.879,0,0,1,1.324,1.014,3.879,3.879,0,0,1,1.324-1.014,3.773,3.773,0,0,1,1.619-.36,3.484,3.484,0,0,1,2.567,1.03,3.483,3.483,0,0,1,1.03,2.567,4.4,4.4,0,0,1-.253,1.471,6.155,6.155,0,0,1-.891,1.578,18.081,18.081,0,0,1-1.717,1.937q-1.079,1.079-2.73,2.567Z" transform="translate(-79.5 854.5)" fill="none" stroke="#000" stroke-width="1"/>
</svg>
